<?xml version="1.0" encoding="utf-8"?>
<!-- Generator: Adobe Illustrator 18.1.1, SVG Export Plug-In . SVG Version: 6.00 Build 0)  -->
<svg version="1.1" id="Layer_1" xmlns="http://www.w3.org/2000/svg" xmlns:xlink="http://www.w3.org/1999/xlink" x="0px" y="0px"
	 viewBox="0 0 1000 831" enable-background="new 0 0 1000 831" xml:space="preserve">
<g>
	<g>
		<path d="M489.9,121.5c3-5.7,11.2-7.2,16-2.9c3.3,2.5,4.1,6.9,3.7,10.8c14.2,11.3,28.4,22.5,42.6,33.8c5.1-3.3,12.1-3.9,17.1,0
			c4.9,3.3,6.6,9.5,5.8,15.2c15.8,9.3,31.6,18.6,47.4,27.9c12.4-10.7,24.9-21.2,37.3-31.9c-0.9-4.1-0.9-8.7,1.9-12.2
			c4.2-6.2,13.9-7,19.2-1.8c5.5,5,5.2,14.7-0.7,19.3c-4.2,3.8-10.4,3.6-15.2,1.1c-12.2,10.4-24.4,20.8-36.6,31.2
			c13.2,18.4,26.3,36.9,39.6,55.2c3.3,0.6,6.9,2.2,7.7,5.8c1.8,5.4-4,11.2-9.5,9.3c-4.4-1.2-6-6.1-5-10.2
			c-12.2-17.4-24.7-34.5-36.9-51.9c-1.9-2.7-3.6-5.8-6.7-7.3c-15.6-9.1-31-18.3-46.6-27.4c-1.8,1.3-3.8,2.5-5.8,3.4
			c0,21.7,0,43.3,0,65c5.8,1.3,11.5,4.5,14.3,9.9c4,6.9,3.6,15.8-0.3,22.7c8.3,7.7,16.6,15.4,24.9,23.1c4-2.2,9.2-3.1,13.3-0.4
			c6,3.4,7.3,12.3,2.7,17.4c-4.1,5.1-12.5,5.4-17,0.7c-3-2.7-3.6-6.8-3.5-10.6c-8.6-8.1-17.3-16.1-26-24.2
			c-5.5,3.5-12.4,5.2-18.7,3.1c-5.6-1.5-10-5.6-13-10.4c-19.5,6.1-39.1,12-58.6,18.2c-2,6.4-7.4,11.8-14.3,12.7
			c-8.3,1.4-17-4.4-18.9-12.5c-1.1-3.5-0.3-7.1,0.5-10.5c-8.5-6.1-17-12.2-25.6-18.3c-7.6,7.3-19.4,9.4-29,5.1
			c-7.8,10.4-14.8,21.5-22.1,32.3c1.1,3.3,1.9,7.1-0.2,10.3c-2.9,5.2-10.6,6.5-15,2.5c-4.6-3.7-4.5-11.6,0.2-15.2
			c2.2-2,5.3-2.1,8.2-2.3c7.4-10.7,14.5-21.5,21.9-32.2c-5.8-6-8.8-14.4-7.5-22.7c-14.4-6.6-28.8-13.1-43.1-19.6
			c-3.6,3.1-8.6,5.3-13.4,3.8c-7.4-1.7-12-10.3-9.2-17.3c2.3-7.2,11.3-11,18.1-7.7c5.3,2.3,8,8.1,7.9,13.7
			c14.1,6.4,28.3,12.8,42.4,19.3c3.7-6.2,9.6-11.4,16.8-13c7.2-1.9,14.8,0,20.9,4c10.1-10.1,20.2-20.1,30.2-30.2
			c-3-5.3-3.1-11.7-0.4-17.2c-18-8-36-16.1-53.9-24.1c-4.2,4.4-10.5,7.1-16.6,5.3c-8.8-2.1-14.3-12.4-11-20.8
			c2.8-8.6,13.7-13.2,21.8-9.1c6.5,2.9,9.9,10.2,9.2,17.1c18.9,8.5,37.8,17,56.8,25.4c3.7-1.9,7.8-2.5,11.9-2.2
			c7.1-15.3,14.3-30.5,21.3-45.8C488.7,130.3,487.5,125.4,489.9,121.5z M497.4,139.8c-6.7,14.4-13.4,28.8-20.2,43.2
			c4.1,3.7,6.6,8.8,6.8,14.3c22.5,19.5,45.1,39,67.6,58.4c2-0.7,4-1.3,6-1.9c0-21.7,0-43.4,0-65.1c-3.1-1.3-6.5-2.7-8.3-5.7
			c-2.7-3.9-2.4-8.9-2.1-13.4c-14.2-11.2-28.4-22.5-42.6-33.8C502.2,137.1,498.3,136.6,497.4,139.8z M469,213.6
			c-3.8,0.7-7.5-0.7-10.9-2.3c-10.1,10.1-20.2,20.1-30.2,30.2c3.5,5.6,5.6,12.3,4.3,18.8c-0.3,2.5-1.7,4.9-1.9,7.4
			c8.3,6.3,17,12.1,25.4,18.3c4.1-2.9,9.2-4.9,14.3-3.7c6.4,1.1,11.2,6.4,13.4,12.3c18.7-5.8,37.4-11.5,56.1-17.4
			c-0.4-6,1.5-11.8,5.2-16.5c-21.2-18.3-42.3-36.6-63.4-54.9C478.2,209.8,474,213.1,469,213.6z"/>
	</g>
	<g>
		<path d="M341,358.5c4.5-5,10.9-9.2,18-8.6c7.5,0.6,13.3,6.7,16.4,13.2c4,8.6,5.1,18.5,3.8,27.9c-3,16.4-11.5,31-20.1,44.9
			c11,0.4,21.9,0.9,32.9,1.2c1.6,0.2,3.7,0,4.8,1.5c3.5,5.3,1.6,15.1-5.7,15.7c-15,0.2-30,0-45,0.1c-3.8,5.3-7.8,10.4-11.8,15.5
			c-1.6,1.7-1.5,4.2-1.7,6.4c-0.6,11.7-1.2,23.4-1.2,35c0.2,6.4,1.3,13.7,6.4,18.1c5.2,4.1,12.6,3.9,18.6,1.6
			c12.4-4.7,23.7-11.9,33.9-20.4c0.3-16.4,5-33,14.9-46.2c6.9-9.1,17.2-16.3,28.8-17.3c7.9-0.7,16.1,0.9,22.7,5.4
			c6.8,4.6,11.3,12.5,11.8,20.7c1,9.7-3.4,19-9.3,26.4c-9.5,11.9-23.4,19.6-37.9,23.9c2.8,4.7,6.5,10,12.4,10.4
			c12.3,0.8,23.7-5,34.1-10.8c7.3-4.5,14.4-9.3,20.6-15.3c1.1-3.1,1.2-6.5,1.8-9.7c2.2-13.7,4.8-27.3,8.8-40.6
			c1.4-3.6,2.4-8.1,6.1-9.9c3.7-1.2,7.8-1.1,11.6-0.4c2.7,0.6,2.9,3.7,3.1,6c0.5,9.2-0.4,18.4,0.7,27.6c4.7-7.3,7.6-15.8,13.3-22.5
			c4.7-5.8,11-11.5,19-11.5c5.5-0.4,11.6,3.6,11.9,9.5c0.4,10.5-4.1,20.5-3.4,31c0.3,4.7,2.3,10.7,7.6,11.7c8,0.8,15.4-3.2,22.2-6.9
			c1.7-10.9,3.4-21.9,6-32.7c1.3-5.1,4.5-10.1,9.7-11.8c4.2-1.3,9.5-1.3,12.9,1.8c3.4,3.7,3.6,9.1,3.4,13.9
			c-0.9,10.9-3.4,21.7-4.5,32.6c1.2-0.6,2.8-0.9,3.4-2.4c5.6-10.6,11.4-21.3,17.1-31.9c2.8-5.2,6.2-10.8,12-13
			c4.5-1.7,9.7-2.7,14.2-0.7c4.6,2.3,6.9,7.5,7.5,12.4c1,6.1-0.7,12.1-1.8,18.1c-2.6,13.5-5.5,27.2-5,41c0.2,4,0.8,8.3,3.3,11.6
			c1.9,2.3,5.4,1.9,7.9,0.8c5.5-2.5,10.2-6.5,14.8-10.4c-2.4-15,0.2-30.5,6.5-44.3c4.8-10.4,12.1-20.1,22.4-25.6
			c9.9-5.6,22.6-6,32.9-1.1c8.2,3.9,14.1,12,15.3,21c1.6,9.6-2.3,19.3-8,27c-9.5,12.6-23.9,20.9-38.9,25.2
			c2.6,4.5,6.1,9.6,11.8,10.3c11.2,1.2,21.9-3.9,31.6-9c9.8-5.2,18.4-12.3,26.8-19.4c-1.9-18.3-1.5-36.8,1-55
			c-7.2-1.2-14.3-2.8-21.6-3.4c-3.4-0.4-7.8-0.6-9.6-4.1c-1-2.4-1.7-5.9,0.3-8c2.7-2,6.2-2.5,9.5-2.9c8.2-0.8,16.4,0.1,24.6-0.1
			c3.6-17,8.2-33.8,15.4-49.6c4.5-9.9,9.9-19.6,18-27c5-4.5,12.3-7.2,18.8-4.9c6.5,2.3,10.9,8.2,13.5,14.3
			c3.3,8.5,4.3,17.9,2.8,26.9c-3.2,16-11.5,30.3-19.9,44c10.9,0.4,21.8,0.9,32.7,1.2c1.7,0.2,3.7,0,4.9,1.4
			c3.6,5.3,1.6,15.5-5.8,15.8c-14.9,0.2-29.8,0-44.8,0.1c-4.3,5.8-8.6,11.6-13.1,17.2c-0.8,12.3-1.3,24.5-1.5,36.8
			c0,6.5,0.4,13.6,4.4,19c3.1,4.3,8.9,5.7,13.9,5.3c5.1-0.6,9.8-2.8,14.4-4.9c12.7-6.3,24.4-14.5,34.2-24.7c0,9.9,0,19.9,0,29.8
			c-14.4,8.1-28.5,17.1-43.9,23.2c-8,3.3-17.5,4.3-25.3-0.1c-9.5-5.3-14.6-15.6-17.9-25.4c-12.7,10.9-26.9,20.5-43.1,25.4
			c-11.8,3.5-25,4.6-36.7-0.2c-7.5-3-13.6-8.5-18.2-15c-10.2,8-21.4,15.6-34.5,17.7c-3.8,0.5-8.3,1.2-11.6-1.4
			c-4.4-3.6-6.5-9.1-7.8-14.4c-2.9-12.8-2.3-26.2-0.6-39.2c0.5-4.7,1.5-9.4,1.5-14.2c-1.3,1-2.4,2.3-3.1,3.7
			c-9.9,19.7-19.7,39.5-29.8,59.1c-3.5,7.9-15.5,9.3-21.1,2.9c-3.5-4-4.4-9.5-4.8-14.6c-0.5-7.1-0.1-14.2,0.6-21.3
			c-8.9,4.7-19.2,7.9-29.2,5.2c-7.7-2-13.5-8.5-16.3-15.8c-3.3-7.7-4-16.1-5.6-24.2c-1.5,0.7-2.2,2.1-2.7,3.6
			c-6.7,18.9-13.5,37.7-20.3,56.6c-2,4.9-3.8,10.6-8.6,13.5c-4.7,1.9-10.7,0.8-14-3.2c-3.9-4.5-4.3-10.7-4.9-16.4
			c-13.5,10-28.9,18.2-45.8,20.1c-10.8,1.4-22.3-0.4-31.4-6.8c-6.3-4.2-10.9-10.4-14.3-17.1c-13.4,7.6-26.5,15.8-40.9,21.4
			c-7.5,3-16.2,4.2-23.7,0.6c-8.9-4.1-14.3-13-17.9-21.7c-12.4,9.3-24.7,20-40.4,23.1c-4.9,0.8-11.1,2-14.8-2.3
			c-6.3-6.9-7.5-16.8-8.2-25.7c-1.2-13.7,1.5-27.2,2.9-40.7c-1.4,0.7-2.4,1.9-3.1,3.2c-10.1,19.9-19.9,39.9-30.2,59.7
			c-3.7,7.8-16,8.9-21.2,2.1c-3.2-3.8-3.8-9-4.6-13.8c-8.7,6.2-18.1,11.4-28.2,15c-7.8,2.9-16.4,4.3-24.6,2.3
			c-5.5-1.4-10.3-5.5-12-11c-2.4-7.6-1.8-15.7-0.8-23.5c3.3-22,9.6-43.3,14.8-64.8c1.3-5.8,7.2-8.9,12.5-10.5
			c4.7-1.2,10-2.3,14.6-0.3c3.6,2.2,2.8,7,2.1,10.4c-4.6,19.7-11.7,38.8-14.5,58.9c-0.5,5.3-1.1,11,0.7,16.1
			c1.7,4.4,7.4,3.1,10.9,1.7c9.6-4.5,17.5-11.7,25.4-18.6c1.8-18.9,4.5-37.8,8.7-56.3c1.2-5.5,4.6-11.1,10.2-12.7
			c4.2-1.2,9.4-1.2,12.7,2c3.3,3.7,3.5,9,3.3,13.7c-1,10.9-3.4,21.7-4.6,32.6c1.4-0.6,2.9-1.1,3.5-2.6c5-9.6,10.3-19.1,15.4-28.7
			c2.3-4.2,4.5-8.6,7.9-12.1c4-4.2,10.1-5.9,15.9-5.6c3.9,0.1,7.4,2.7,9.3,6.1c3,5.4,3.1,11.9,2,17.9c-2.7,14.4-6.1,28.8-6.5,43.5
			c0,5.5,0,11.5,3.1,16.2c2.1,3,6.3,2.2,9.1,0.7c8.9-4.7,16.1-11.9,23.3-18.7c-3-20.5-2.6-41.4,0-61.9c-6.8-1.1-13.5-2.6-20.3-3.3
			c-3-0.5-6.3-0.4-8.9-2.1c-2.7-1.8-3.2-5.6-2.7-8.6c0.8-2.4,3.5-3.1,5.7-3.7c9.7-2.1,19.6-0.7,29.5-0.9c2.9-14.1,6.7-28,11.9-41.4
			C327.1,379.3,332.5,367.7,341,358.5z M351.4,377.9c-3.9,4.5-5.9,10.2-8,15.7c-4.5,12.8-7.5,26.1-10.5,39.4
			c2.4,0.3,4.7,0.5,7.1,0.8c7.4-12.7,14.6-25.7,19.3-39.8c1.5-4.7,2.7-10,0.8-14.8C358.9,375.8,353.7,374.9,351.4,377.9z
			 M838.5,377.1c-2.6,2.2-4.1,5.4-5.6,8.4c-6.7,15.1-10.1,31.5-13.8,47.6c2.3,0.3,4.7,0.5,7.1,0.8c7.5-12.9,14.8-26.1,19.6-40.4
			c1.4-4.6,2.4-9.7,0.5-14.3C845.1,376.2,840.9,375,838.5,377.1z M424.7,478.1c-4.9,7.8-5.8,17.2-5.9,26.2
			c10.4-1.1,19.9-7.4,26-15.9c3-4,2.9-9.4,1.3-13.9c-0.9-2.3-2.4-4.7-5.1-5C434.5,469.1,428.1,472.6,424.7,478.1z M725.2,478.7
			c-4.5,7.7-5.5,16.9-5.5,25.6c10.5-1.2,20-7.5,26.1-16.1c2.6-3.5,2.5-8.2,1.7-12.3c-0.8-2.8-2.4-6-5.5-6.5
			C735.2,469,728.6,472.9,725.2,478.7z"/>
	</g>
	<path d="M166.4,395.2c6.8-1,14.5-0.6,20.2,3.7c7.6,6.1,6.6,18.2,1.1,25.3c-4.5,5.5-11.8,8-18.7,7.7c-5.4-0.1-11.3-1.2-15.2-5.3
		c-5.4-5.8-5.8-15.3-1.6-21.9C155.2,399.6,160.7,396.2,166.4,395.2z"/>
	<path d="M378.5,586.1c4.2-0.8,9.1,0.8,11.3,4.6c1.5,2.5,1.4,5.9-0.2,8.4c-4.4,6.5-16.4,5.6-19-2
		C368.7,591.8,373.2,586.6,378.5,586.1z"/>
	<path d="M613.5,586.1c6.2-1.6,14.1,3.5,12.5,10.3c-2.3,9.3-18.1,9.3-20.3,0C604.4,591.4,608.6,586.8,613.5,586.1z"/>
	<path d="M467.5,589.9c3.5-4.7,11.6-4.7,15,0.1c1.8,2.4,1.5,5.6,1.6,8.5c0,7,0,14.1-0.1,21.1c5.6-5.2,13.3-8.3,20.9-7.3
		c7.1,0.5,14,4.4,17.3,10.8c4.2,7.4,3.2,16.2,3.3,24.3c-0.1,7.6,0.3,15.3-0.2,22.9c-0.7,5.2-6.5,8.1-11.3,6.8
		c-3.5-0.8-6.4-4.1-6.4-7.7c-0.2-10.6,0.1-21.3-0.1-31.9c-0.1-4.2-1.4-9.1-5.6-11c-7.3-3.3-16.8,1.8-17.8,9.8
		c-0.8,11.4,0.3,22.8-0.5,34.2c-1,6.9-10.7,9.1-15.3,4.5c-2.3-2.2-2.8-5.5-2.7-8.5c0-23,0-46,0-69
		C465.8,594.9,465.8,592.1,467.5,589.9z"/>
	<path d="M582.3,586.8c5.5-1.8,11.9,2.8,11.5,8.6c0.1,23.7,0,47.4,0,71.1c0,2.5,0,5.1-1.6,7.2c-3.3,4.8-11.4,5.1-14.8,0.3
		c-1.5-1.8-1.7-4.3-1.7-6.5c0-24,0-48,0-72C575.5,591.5,578.4,587.7,582.3,586.8z"/>
	<path d="M708.1,596.6c1.8-6.8,13.3-7.7,15.4-0.7c0.8,5.6,0.1,11.3,0.4,17c4.3,0.2,10-1.2,12.9,2.9c2.8,3.4,1.1,9.2-3.1,10.5
		c-3.2,0.6-6.6,0.3-9.8,0.3c0,9.4-0.1,18.7,0,28.1c0.2,2.8-0.1,5.9,1.7,8.3c3.6,1.4,7.6-0.4,11.3,0.9c4.1,1.9,5,8.2,1.5,11.1
		c-4.3,3.5-10.3,3.5-15.5,3.2c-5.2-0.3-10.6-2.6-13.4-7.2c-3.1-4.8-3.6-10.8-3.7-16.4c0-9.3,0-18.6,0-28c-3.2-0.2-7.3,0.5-9.4-2.5
		c-2.6-3.1-1.6-8.4,2-10.3c2.6-1.2,5.6-0.9,8.4-1.1C707.2,607.3,707,601.8,708.1,596.6z"/>
	<path d="M261.5,619.5c0.8-4.6,6.1-7.9,10.5-6.2c3,0.8,4.9,3.6,5.8,6.4c4.1,11.9,7.3,24.1,11.7,36c4.1-11,7.8-22.1,11.8-33.1
		c1.3-3.3,2.9-6.8,6.2-8.6c3.6-1.7,8.1-1.6,11.6,0.5c2.8,1.6,4.1,4.8,5.2,7.7c3.7,11,7.2,22,11.1,33c3.4-9.3,6.1-18.8,9.2-28.2
		c1.3-3.7,2-7.6,4.2-10.9c2.9-4.1,10-4.4,12.8-0.1c2.2,3,1.7,7,0.4,10.2c-5,13.7-9.9,27.5-14.9,41.3c-1.3,3.3-2.9,7-6.3,8.7
		c-3.8,1.9-8.9,1.7-12.1-1.3c-2.4-2.3-3.6-5.4-4.6-8.4c-3.8-11.2-7.5-22.4-11.5-33.5c-4.5,11.3-8.1,23-12.4,34.4
		c-1.4,3.7-3.5,7.5-7.2,9.1c-4.2,1.7-9.5,1-12.6-2.3c-2.1-2.2-3.1-5.2-4.1-8c-4.2-12.1-8.4-24.3-12.6-36.4
		C262.5,626.5,260.8,623.1,261.5,619.5z"/>
	<path d="M417.5,613.3c8.9-1.7,18.5-1.7,27.1,1.6c3.9,1.5,8.2,4.8,7.9,9.5c-0.5,4.3-6,5.9-9.5,4.2c-6.2-2.9-13.2-3.6-19.9-2.6
		c-2.5,0.4-5,1.9-5.5,4.5c0.2,2.7,3.3,3.8,5.5,4.6c7.8,2.3,16,3.6,23.5,6.8c5.3,2.3,9.8,7.5,10,13.5c0.6,7.2-3.4,14.4-9.6,18.1
		c-8.4,5-18.6,5.4-28,4.1c-6-1-12.5-2.7-16.8-7.3c-2.6-2.7-2.3-7.6,1.1-9.4c3.1-2.1,6.8-0.6,9.9,0.6c6.2,2.6,13.1,4.5,19.9,3.1
		c3-0.6,6.2-2.7,6.6-6c0.1-2.9-2.6-4.6-5-5.5c-8.9-3.1-18.7-3.4-26.8-8.4c-6.9-4.1-9.1-13.9-5.5-20.9
		C405.2,618,411.4,614.6,417.5,613.3z"/>
	<path d="M638.6,622.1c4-6.1,11.4-8.7,18.3-9.5c8.3-0.8,17.2-0.5,24.8,3.2c3.4,1.7,6.8,5.2,5.9,9.2c-1,4.1-6.3,5.2-9.6,3.5
		c-6.4-3-13.7-3.6-20.6-2.2c-2.4,0.4-3.8,2.6-5.1,4.4c1.4,1.9,3.1,3.7,5.5,4.3c8.1,2.5,16.7,3.7,24.5,7.2c4.2,2,7.9,5.7,9.1,10.3
		c2.1,7.9-1.9,16.6-8.8,20.8c-8.8,5.4-19.7,5.7-29.6,4.1c-6-1.2-12.8-3.1-16.4-8.4c-2.3-3.6,0.3-8.7,4.5-9.1
		c4.3-0.4,8.1,2.2,12.1,3.3c5,1.7,10.5,2.5,15.7,1.3c3.1-0.7,6.3-3.2,6-6.7c-0.4-2.6-3-3.9-5.3-4.7c-9-3.1-19.2-3.4-27.3-8.8
		C635.4,639.4,633.9,628.9,638.6,622.1z"/>
	<path d="M376.3,613.9c5.3-2.9,13,0.8,13.1,7c0.2,14.9,0,29.8,0.1,44.6c0,2.7,0.2,5.7-1.5,8c-3.2,4.9-11.3,5.3-14.8,0.6
		c-1.7-2.1-1.9-5-1.9-7.6c0.1-14.7,0-29.4,0-44.1C371.3,619,373,615.3,376.3,613.9z"/>
	<path d="M611.3,614c5.5-3.3,13.7,0.9,13.4,7.5c0.1,15.7,0.1,31.4,0,47.1c0.2,4.4-3.4,8.4-7.7,8.8c-5.3,1.1-10.7-3.4-10.3-8.9
		c0-15.3,0-30.6,0-46C606.5,619.1,608.1,615.5,611.3,614z"/>
</g>
</svg>
