<?xml version="1.0" standalone="no"?>
<!DOCTYPE svg PUBLIC "-//W3C//DTD SVG 20010904//EN"
 "http://www.w3.org/TR/2001/REC-SVG-20010904/DTD/svg10.dtd">
<svg version="1.0" xmlns="http://www.w3.org/2000/svg"
 width="256.000000pt" height="256.000000pt" viewBox="0 0 256.000000 256.000000"
 preserveAspectRatio="xMidYMid meet">
<metadata>
Created by potrace 1.11, written by Peter Selinger 2001-2013
</metadata>
<g transform="translate(0.000000,256.000000) scale(0.100000,-0.100000)"
fill="#000000" stroke="none">
<path d="M1246 2074 c-22 -21 -30 -61 -19 -87 8 -18 -2 -55 -51 -184 -65 -172
-59 -164 -131 -175 -5 -1 -83 39 -172 88 -157 85 -163 90 -163 120 0 36 -32
81 -67 95 -53 20 -123 -43 -123 -110 0 -92 91 -147 153 -93 17 15 21 15 46 1
15 -9 72 -40 126 -69 171 -92 156 -80 152 -125 -3 -21 -1 -49 3 -60 7 -18 -6
-40 -72 -121 -44 -54 -83 -103 -87 -107 -4 -4 -21 -1 -37 8 -58 30 -132 8
-170 -50 -9 -14 -20 -25 -26 -25 -5 0 -60 28 -123 63 -100 54 -115 66 -120 92
-8 37 -23 58 -53 74 -51 27 -114 -33 -106 -101 8 -69 59 -102 115 -74 28 14
33 13 147 -51 64 -36 118 -66 120 -68 1 -1 5 -24 8 -51 2 -27 13 -63 24 -81
l19 -32 -62 -112 c-46 -84 -69 -114 -89 -121 -54 -19 -61 -102 -12 -134 24
-16 27 -16 52 3 21 16 27 29 28 61 0 29 17 69 61 148 l60 109 54 -3 c44 -3 60
1 89 21 l35 24 72 -61 c62 -52 72 -65 68 -87 -9 -60 29 -127 82 -143 33 -10
89 20 104 56 14 33 22 38 222 113 l128 47 35 -36 c19 -20 44 -37 54 -37 11 -1
26 -2 33 -3 6 -1 25 4 42 12 29 14 30 14 68 -29 81 -93 104 -125 116 -166 27
-95 131 -77 131 23 0 57 -30 88 -79 81 -35 -5 -39 -2 -101 70 -36 42 -64 83
-63 92 0 9 4 32 7 51 10 66 -32 154 -82 171 -20 7 -19 456 1 476 12 13 33 1
160 -91 l145 -106 62 -108 c34 -59 65 -114 70 -122 71 -116 101 -173 104 -201
7 -59 65 -74 84 -20 11 30 -3 68 -27 76 -9 3 -67 93 -130 201 l-113 196 34 37
c169 181 170 182 203 175 25 -4 38 0 61 19 24 21 29 33 29 70 0 123 -145 129
-151 7 -1 -37 -11 -50 -109 -151 l-107 -111 -36 27 c-21 14 -83 58 -139 98
-56 40 -102 77 -101 82 4 67 -28 116 -77 116 -16 0 -37 -2 -46 -3 -9 -2 -68
46 -138 111 -89 84 -121 120 -121 138 0 13 -7 35 -16 48 -19 29 -64 34 -88 9z
m199 -251 c88 -85 120 -124 121 -142 1 -14 2 -34 3 -44 1 -10 15 -32 31 -49
l30 -30 0 -223 c0 -211 -1 -225 -19 -235 -16 -8 -24 -4 -47 23 -15 17 -102
110 -193 205 -125 132 -168 182 -173 208 -4 19 -14 44 -22 57 -13 20 -9 36 47
184 52 136 65 163 82 163 12 0 70 -49 140 -117z m-220 -425 c21 -24 74 -81
119 -128 45 -47 110 -115 144 -151 l62 -66 -15 -36 c-8 -20 -15 -47 -15 -59 0
-21 -17 -30 -162 -84 l-163 -61 -12 28 c-22 53 -83 72 -143 45 -11 -4 -35 11
-74 46 -32 29 -64 56 -71 60 -9 5 -9 20 -2 56 8 39 7 59 -6 97 l-15 49 84 103
85 103 43 -6 c39 -6 47 -3 68 19 12 14 26 25 29 26 4 1 24 -18 44 -41z"/>
</g>
</svg>
